<svg width="97" height="20" viewBox="0 0 97 20" fill="none" xmlns="http://www.w3.org/2000/svg">
<path d="M20.3083 9.90461C20.3083 4.43472 15.874 0.000488281 10.4041 0.000488281C4.93423 0.000488281 0.5 4.43472 0.5 9.90461C0.5 15.3745 4.93423 19.8087 10.4041 19.8087C15.874 19.8087 20.3083 15.3745 20.3083 9.90461Z" fill="#265DF5"/>
<path d="M12.8923 13.7151L12.8715 14.6633L12.8108 17.401V17.5066C8.18476 13.5031 7.39666 12.5266 7.26006 12.2298L7.25536 12.2197C7.23891 12.1638 7.23501 12.105 7.24391 12.0474C7.24716 12.0261 7.25166 12.0049 7.25736 11.9842C7.26206 11.9674 7.26676 11.9511 7.27286 11.9337C7.32271 11.8027 7.39336 11.6807 7.48216 11.5723C7.54571 11.4902 7.61496 11.4126 7.68941 11.3401C7.84861 11.1827 8.01911 11.0371 8.19956 10.9047C8.28906 10.8374 8.38261 10.7701 8.48151 10.7028C8.67266 10.5722 8.87926 10.4417 9.09331 10.3145C10.7556 11.8651 12.8654 13.6902 12.8923 13.7151Z" fill="url(#paint0_linear_2858_18683)"/>
<path d="M12.9536 4.71826L12.9327 5.66985L12.9219 6.14095L12.9004 7.08785L12.8896 7.563L12.8687 8.51055C12.8358 8.524 10.7259 9.34235 9.09996 10.3095C8.88601 10.4366 8.68006 10.5673 8.48826 10.6978C8.39001 10.7651 8.29581 10.8323 8.20626 10.8997C8.02611 11.0325 7.85566 11.178 7.69616 11.3351C7.62191 11.4077 7.55266 11.4852 7.48886 11.5673C7.34216 11.7544 7.25401 11.9381 7.24121 12.111L7.25871 11.3203V11.3149L7.26206 11.1924V11.148L7.27621 10.6493L7.30311 9.6607L7.31591 9.17745L7.34286 8.1976C7.67731 6.82605 12.401 4.93564 12.9536 4.71826Z" fill="white"/>
<path d="M8.59836 5.76895C9.36506 5.76895 9.98671 5.14735 9.98671 4.38056C9.98671 3.61378 9.36506 2.99219 8.59836 2.99219C7.83156 2.99219 7.20996 3.61378 7.20996 4.38056C7.20996 5.14735 7.83156 5.76895 8.59836 5.76895Z" fill="white"/>
<path d="M72.0553 3.80729C72.0553 4.49905 71.4903 5.06039 70.7928 5.06039C70.0953 5.06039 69.5303 4.49905 69.5303 3.80729C69.5303 3.11553 70.0953 2.5542 70.7928 2.5542C71.4903 2.5542 72.0553 3.11553 72.0553 3.80729Z" fill="#265DF5" stroke="#275DF5" stroke-width="0.089752"/>
<path fill-rule="evenodd" clip-rule="evenodd" d="M87.1781 8.0148C87.0886 7.6437 86.9266 7.3654 86.6906 7.17985C86.4551 6.9943 86.1261 6.90155 85.7031 6.90155C85.0611 6.90155 84.5816 7.1476 84.2651 7.6397C83.9481 8.1237 83.7811 8.93045 83.7651 10.0599C83.9761 9.70495 84.2851 9.4306 84.6916 9.237C85.0981 9.0434 85.5366 8.9466 86.0081 8.9466C86.5446 8.9466 87.0156 9.06355 87.4221 9.2975C87.8366 9.52335 88.1576 9.85415 88.3851 10.2898C88.6206 10.7255 88.7386 11.2458 88.7386 11.8508C88.7386 12.4155 88.6246 12.9197 88.3971 13.3634C88.1781 13.8071 87.8486 14.158 87.4101 14.4162C86.9711 14.6662 86.4426 14.7913 85.8251 14.7913C84.9881 14.7913 84.3296 14.6098 83.8506 14.2468C83.3791 13.8757 83.0456 13.3554 82.8506 12.6857C82.6641 12.0162 82.5706 11.1812 82.5706 10.1809C82.5706 7.22825 83.6186 5.75195 85.7156 5.75195C86.5281 5.75195 87.1661 5.96975 87.6291 6.4054C88.1006 6.84105 88.3771 7.3775 88.4581 8.0148H87.1781ZM85.7031 10.1083C85.2076 10.1083 84.7851 10.2575 84.4356 10.556C84.0941 10.8465 83.9236 11.2699 83.9236 11.8266C83.9236 12.3833 84.0821 12.827 84.3991 13.1577C84.7241 13.4804 85.1751 13.6417 85.7521 13.6417C86.2641 13.6417 86.6661 13.4844 86.9591 13.1698C87.2596 12.8552 87.4101 12.4357 87.4101 11.9113C87.4101 11.3628 87.2636 10.9271 86.9711 10.6044C86.6866 10.2737 86.2641 10.1083 85.7031 10.1083ZM89.3676 10.2656C89.3676 8.86995 89.6036 7.78085 90.0746 6.99835C90.5541 6.20775 91.3751 5.81245 92.5376 5.81245C93.6996 5.81245 94.5166 6.20775 94.9876 6.99835C95.4671 7.78085 95.7066 8.86995 95.7066 10.2656C95.7066 11.6774 95.4671 12.7826 94.9876 13.5812C94.5166 14.3718 93.6996 14.7671 92.5376 14.7671C91.3751 14.7671 90.5541 14.3718 90.0746 13.5812C89.6036 12.7826 89.3676 11.6774 89.3676 10.2656ZM94.3416 10.2656C94.3416 9.6121 94.2966 9.0595 94.2076 8.60775C94.1261 8.156 93.9556 7.7889 93.6951 7.50655C93.4351 7.21615 93.0491 7.07095 92.5376 7.07095C92.0251 7.07095 91.6391 7.21615 91.3796 7.50655C91.1191 7.7889 90.9441 8.156 90.8546 8.60775C90.7736 9.0595 90.7336 9.6121 90.7336 10.2656C90.7336 10.9432 90.7736 11.512 90.8546 11.9718C90.9361 12.4316 91.1066 12.8027 91.3671 13.0851C91.6356 13.3674 92.0251 13.5086 92.5376 13.5086C93.0491 13.5086 93.4351 13.3674 93.6951 13.0851C93.9636 12.8027 94.1386 12.4316 94.2196 11.9718C94.3011 11.512 94.3416 10.9432 94.3416 10.2656ZM76.8566 6.3933C76.3281 6.8128 76.0396 7.39765 75.9911 8.1479H77.3441C77.3926 7.8091 77.5431 7.52675 77.7951 7.30085C78.0471 7.0669 78.4006 6.94995 78.8556 6.94995C79.3186 6.94995 79.6766 7.0669 79.9281 7.30085C80.1801 7.52675 80.3061 7.8333 80.3061 8.2205C80.3061 8.6723 80.1316 9.00305 79.7821 9.2128C79.4406 9.4225 78.9411 9.53145 78.2826 9.5395H77.9536V10.677H78.2706C79.0181 10.677 79.5706 10.798 79.9281 11.0401C80.2941 11.274 80.4771 11.6734 80.4771 12.238C80.4771 12.6656 80.3426 13.0166 80.0746 13.2908C79.8061 13.557 79.4246 13.6901 78.9286 13.6901C78.4166 13.6901 78.0106 13.557 77.7096 13.2908C77.4091 13.0166 77.2426 12.6656 77.2101 12.238H75.8691C75.9096 13.077 76.2101 13.7224 76.7711 14.1742C77.3401 14.6179 78.0631 14.8397 78.9411 14.8397C79.5421 14.8397 80.0581 14.7348 80.4891 14.5251C80.9196 14.3073 81.2446 14.0128 81.4641 13.6417C81.6836 13.2707 81.7936 12.8471 81.7936 12.3711C81.7936 11.7742 81.6591 11.2861 81.3911 10.907C81.1231 10.5197 80.7491 10.2535 80.2696 10.1083V10.0599C80.6436 9.9388 80.9646 9.70085 81.2326 9.3459C81.5006 8.99095 81.6351 8.5634 81.6351 8.0632C81.6351 7.6276 81.5291 7.2363 81.3181 6.88945C81.1066 6.54255 80.7936 6.26825 80.3791 6.0666C79.9646 5.8649 79.4731 5.76405 78.9041 5.76405C78.0756 5.76405 77.3926 5.9738 76.8566 6.3933Z" fill="url(#paint1_linear_2858_18683)"/>
<path d="M30.0311 6.01779C31.0514 6.01779 31.8728 6.33719 32.4985 6.97354C33.1235 7.60909 33.4386 8.49814 33.4386 9.64684V14.641H31.3419V9.94184C31.3419 9.25284 31.168 8.71589 30.814 8.33769C30.4602 7.95974 29.9789 7.77259 29.3757 7.77259C28.7621 7.77309 28.273 7.96004 27.9143 8.33744C27.5553 8.71514 27.3789 9.25224 27.3789 9.94184V14.641H25.2822V6.14179H27.3789V7.16629V7.29584L27.4591 7.19409C27.7509 6.82349 28.128 6.52774 28.5589 6.33174C29.0198 6.11949 29.523 6.01219 30.0311 6.01779Z" fill="#265DF5" stroke="#275DF5" stroke-width="0.089752"/>
<path d="M39.2215 12.9643C39.6296 12.9657 40.0307 12.8594 40.3837 12.6561C40.7478 12.4474 41.0458 12.1416 41.244 11.7734C41.4565 11.3838 41.5618 10.9219 41.5618 10.3891C41.5618 9.85631 41.4565 9.39651 41.244 9.01121C41.0458 8.64301 40.7477 8.33726 40.3836 8.12846C40.1192 7.97636 39.8269 7.87816 39.5239 7.83961C39.2208 7.80106 38.913 7.82291 38.6186 7.90396C38.3241 7.98496 38.049 8.12351 37.809 8.31146C37.5692 8.49941 37.3696 8.73296 37.2218 8.99846C37.0043 9.38361 36.8965 9.83811 36.8964 10.3604C36.8853 10.8399 36.9971 11.3142 37.2213 11.739C37.4198 12.1136 37.7169 12.4277 38.0811 12.6477C38.4247 12.8555 38.8193 12.965 39.2215 12.9643ZM39.2215 12.9643C39.2215 12.9643 39.2216 12.9643 39.2215 12.9643V12.9643ZM41.4812 7.35221L41.5618 7.45866V7.32511V6.14556H43.6746V14.6427H41.5618V13.4314V13.2916L41.4804 13.4053C41.1835 13.8203 40.7904 14.1586 40.3343 14.3915C39.8132 14.6597 39.2325 14.794 38.6457 14.7818L38.6443 14.7819C37.949 14.7887 37.2664 14.5974 36.6774 14.2305C36.0738 13.8503 35.5875 13.3121 35.2722 12.6752L35.2719 12.6746C34.927 12.0054 34.7539 11.2349 34.7539 10.3617C34.7539 9.50246 34.9269 8.74061 35.2719 8.07481L35.2722 8.07416C35.5866 7.44296 36.0733 6.91211 36.6769 6.54216C37.2744 6.18281 37.9615 5.99696 38.6602 6.00566H38.6607C39.2997 6.00616 39.8568 6.13421 40.3336 6.38836L40.3342 6.38866C40.7843 6.62066 41.1763 6.94991 41.4812 7.35221Z" fill="#265DF5"/>
<path d="M39.2215 12.9643C39.6296 12.9657 40.0307 12.8594 40.3837 12.6561C40.7478 12.4474 41.0458 12.1416 41.244 11.7734C41.4565 11.3838 41.5618 10.9219 41.5618 10.3891C41.5618 9.85631 41.4565 9.39651 41.244 9.01121C41.0458 8.64301 40.7477 8.33726 40.3836 8.12846C40.1192 7.97636 39.8269 7.87816 39.5239 7.83961C39.2208 7.80106 38.913 7.82291 38.6186 7.90396C38.3241 7.98496 38.049 8.12351 37.809 8.31146C37.5692 8.49941 37.3696 8.73296 37.2218 8.99846C37.0043 9.38361 36.8965 9.83811 36.8964 10.3604C36.8853 10.8399 36.9971 11.3142 37.2213 11.739C37.4198 12.1136 37.7169 12.4277 38.0811 12.6477C38.4247 12.8555 38.8193 12.965 39.2215 12.9643ZM39.2215 12.9643V12.9194M39.2215 12.9643C39.2216 12.9643 39.2215 12.9643 39.2215 12.9643ZM41.4812 7.35221L41.5618 7.45866V7.32511V6.14556H43.6746V14.6427H41.5618V13.4314V13.2916L41.4804 13.4053C41.1835 13.8203 40.7904 14.1586 40.3343 14.3915C39.8132 14.6597 39.2325 14.794 38.6457 14.7818L38.6443 14.7819C37.949 14.7887 37.2664 14.5974 36.6774 14.2305C36.0738 13.8503 35.5875 13.3121 35.2722 12.6752L35.2719 12.6746C34.927 12.0054 34.7539 11.2349 34.7539 10.3617C34.7539 9.50246 34.9269 8.74061 35.2719 8.07481L35.2722 8.07416C35.5866 7.44296 36.0733 6.91211 36.6769 6.54216C37.2744 6.18281 37.9615 5.99696 38.6602 6.00566H38.6607C39.2997 6.00616 39.8568 6.13421 40.3336 6.38836L40.3342 6.38866C40.7843 6.62066 41.1763 6.94991 41.4812 7.35221Z" stroke="#275DF5" stroke-width="0.089752"/>
<path d="M47.2462 10.8301C47.2467 11.5194 47.4204 12.0565 47.774 12.4342C48.1275 12.8117 48.6087 12.9986 49.2124 12.9986C49.8255 12.9986 50.312 12.8119 50.666 12.4342C51.02 12.0565 51.194 11.5195 51.194 10.8301V6.14597H53.306V14.6416H51.194V13.6048V13.4719L51.1135 13.5776C50.8295 13.9499 50.457 14.2463 50.0295 14.4401L50.029 14.4402C49.573 14.6515 49.0752 14.7587 48.5721 14.754L48.5708 14.7541C47.9531 14.7664 47.3426 14.6215 46.7973 14.3333C46.2802 14.0487 45.8598 13.6181 45.5897 13.096L45.5893 13.0954C45.2967 12.5509 45.1494 11.8997 45.1494 11.1401V6.14307H47.2462V10.8301Z" fill="#265DF5" stroke="#275DF5" stroke-width="0.089752"/>
<path d="M56.8777 11.035V14.649H54.7812V3.26611H56.8777V9.7486V9.87685L56.9577 9.77655L59.8492 6.1498H62.5707L58.8257 10.3852L58.7992 10.4151L58.8257 10.4449L62.6008 14.649H59.8802L56.9577 11.0069L56.8777 10.9074V11.035Z" fill="#265DF5" stroke="#275DF5" stroke-width="0.089752"/>
<path d="M65.8534 7.43916V7.60162L65.9369 7.46222C66.2049 7.01347 66.5889 6.64372 67.0489 6.39092C67.4964 6.14517 67.9999 6.01857 68.5104 6.02307V8.21272H67.9744C67.2804 8.21322 66.7494 8.37491 66.3894 8.70551C66.0269 9.03846 65.8519 9.61246 65.8519 10.4129V14.6471H63.7549V6.14497H65.8534V7.43916Z" fill="#265DF5" stroke="#275DF5" stroke-width="0.089752"/>
<path d="M69.6211 14.6459V6.14307H71.7176V14.6459H69.6211Z" fill="#265DF5" stroke="#275DF5" stroke-width="0.089752"/>
<defs>
<linearGradient id="paint0_linear_2858_18683" x1="11.936" y1="15.1512" x2="6.44911" y2="8.82175" gradientUnits="userSpaceOnUse">
<stop stop-color="white"/>
<stop offset="1" stop-color="#265DF5"/>
</linearGradient>
<linearGradient id="paint1_linear_2858_18683" x1="92.5966" y1="12.3527" x2="75.2751" y2="6.3617" gradientUnits="userSpaceOnUse">
<stop stop-color="#1BDBA2"/>
<stop offset="1" stop-color="#00B1B1"/>
</linearGradient>
</defs>
</svg>
